<?xml version="1.0" encoding="iso-8859-1"?>
<!-- Uploaded to: SVG Repo, www.svgrepo.com, Generator: SVG Repo Mixer Tools -->
<svg fill="#000000" height="800px" width="800px" version="1.1" id="Layer_1" xmlns="http://www.w3.org/2000/svg" xmlns:xlink="http://www.w3.org/1999/xlink" 
	 viewBox="0 0 512 512" xml:space="preserve">
<g transform="translate(1 1)">
	<g>
		<g>
			<path d="M502.467-1H7.533C2.413-1-1,2.413-1,7.533v358.4c0,3.413,1.707,5.973,4.267,7.68l247.467,136.533
				C252.44,511,253.293,511,255,511s2.56,0,4.267-0.853l247.467-136.533c2.56-1.707,4.267-4.267,4.267-7.68V7.533
				C511,2.413,507.587-1,502.467-1z M493.933,360.813L255,492.227L16.067,360.813V16.067h477.867V360.813z"/>
			<path d="M54.467,342.893l33.28,18.773c1.707,0.853,2.56,0.853,4.267,0.853c3.413,0,5.973-1.707,7.68-3.413
				c2.56-4.267,0.853-9.387-3.413-11.947l-29.013-16.213v-33.28c0-5.12-3.413-8.533-8.533-8.533s-8.533,3.413-8.533,8.533v38.4
				C50.2,338.627,51.907,342.04,54.467,342.893z"/>
			<path d="M58.733,249.027c5.12,0,8.533-4.267,8.533-8.533v-86.187c0-5.12-3.413-8.533-8.533-8.533s-8.533,3.413-8.533,8.533
				v86.187C50.2,245.613,53.613,249.027,58.733,249.027z"/>
			<path d="M58.733,105.667c5.12,0,8.533-3.413,8.533-8.533V67.267h29.867c5.12,0,8.533-3.413,8.533-8.533s-3.413-8.533-8.533-8.533
				h-38.4c-5.12,0-8.533,3.413-8.533,8.533v38.4C50.2,102.253,53.613,105.667,58.733,105.667z"/>
			<path d="M150.04,67.267h78.507c5.12,0,8.533-3.413,8.533-8.533s-3.413-8.533-8.533-8.533H150.04c-5.12,0-8.533,3.413-8.533,8.533
				S144.92,67.267,150.04,67.267z"/>
			<path d="M281.453,67.267h78.507c5.12,0,8.533-3.413,8.533-8.533S365.08,50.2,359.96,50.2h-78.507
				c-5.12,0-8.533,3.413-8.533,8.533S276.333,67.267,281.453,67.267z"/>
			<path d="M412.867,67.267h29.867v29.867c0,5.12,3.413,8.533,8.533,8.533c5.12,0,8.533-3.413,8.533-8.533v-38.4
				c0-5.12-3.413-8.533-8.533-8.533h-38.4c-5.12,0-8.533,3.413-8.533,8.533S407.747,67.267,412.867,67.267z"/>
			<path d="M451.267,145.773c-5.12,0-8.533,3.413-8.533,8.533v86.187c0,5.12,3.413,8.533,8.533,8.533
				c5.12,0,8.533-4.267,8.533-8.533v-86.187C459.8,149.187,456.387,145.773,451.267,145.773z"/>
			<path d="M451.267,289.133c-5.12,0-8.533,3.413-8.533,8.533v32.427l-29.013,16.213c-4.267,2.56-5.973,7.68-3.413,11.947
				c1.707,2.56,4.267,4.267,7.68,4.267c0.853,0,2.56,0,4.267,0l33.28-18.773c2.56-1.707,4.267-4.267,4.267-7.68v-38.4
				C459.8,292.547,456.387,289.133,451.267,289.133z"/>
			<path d="M318.147,409.453c1.707,2.56,4.267,4.267,7.68,4.267c0.853,0,2.56-0.853,4.267-0.853l55.467-30.72
				c4.267-2.56,5.973-7.68,3.413-11.947c-2.56-4.267-7.68-5.973-11.947-3.413l-55.467,30.72
				C317.293,400.067,315.587,405.187,318.147,409.453z"/>
			<path d="M214.04,420.547c-2.56,4.267-0.853,9.387,3.413,11.947l33.28,18.773c1.707,0.853,2.56,0.853,4.267,0.853
				s2.56,0,4.267-0.853l34.133-17.92c4.267-2.56,5.973-7.68,3.413-11.947s-7.68-5.973-11.947-3.413L255,434.2l-29.013-17.067
				C221.72,414.573,216.6,416.28,214.04,420.547z"/>
			<path d="M124.44,382.147l55.467,30.72c1.707,0.853,2.56,0.853,4.267,0.853c3.413,0,5.973-1.707,7.68-4.267
				c2.56-4.267,0.853-9.387-3.413-11.947l-55.467-30.72c-4.267-2.56-9.387-0.853-11.947,3.413S120.173,379.587,124.44,382.147z"/>
		</g>
	</g>
</g>
</svg>